<svg width="56" height="57" viewBox="0 0 56 57" fill="none" xmlns="http://www.w3.org/2000/svg">
<circle cx="28" cy="36.6001" r="11" fill="#CDD6F9"/>
<path d="M28 18.6001C36.1315 18.6001 43 25.4686 43 33.6001C43 41.7316 36.1315 48.6001 28 48.6001C19.8685 48.6001 13 41.7316 13 33.6001C13 25.4686 19.8685 18.6001 28 18.6001ZM28 26.1001C25.4095 26.1001 23.5 28.0081 23.5 30.6001C23.5 33.1921 25.4095 35.1001 28 35.1001C30.589 35.1001 32.5 33.1921 32.5 30.6001C32.5 28.0081 30.589 26.1001 28 26.1001ZM35.659 40.7581C34.3135 38.7781 32.0695 37.4581 29.5 37.4581H26.5C23.929 37.4581 21.6865 38.7781 20.341 40.7581C22.258 42.8101 24.9775 44.1001 28 44.1001C31.0225 44.1001 33.742 42.8101 35.659 40.7581Z" fill="#0432DF"/>
<path d="M11.8098 17.1855C11.8697 17.0012 12.1303 17.0012 12.1902 17.1855L12.8532 19.2258C12.8799 19.3082 12.9567 19.364 13.0434 19.364H15.1887C15.3824 19.364 15.463 19.612 15.3062 19.7258L13.5706 20.9868C13.5005 21.0378 13.4712 21.128 13.498 21.2104L14.1609 23.2508C14.2208 23.435 14.0099 23.5882 13.8532 23.4744L12.1176 22.2134C12.0475 22.1624 11.9525 22.1624 11.8824 22.2134L10.1468 23.4744C9.9901 23.5882 9.7792 23.435 9.83907 23.2508L10.502 21.2104C10.5288 21.128 10.4995 21.0378 10.4294 20.9868L8.69375 19.7258C8.53701 19.612 8.61757 19.364 8.81131 19.364H10.9566C11.0433 19.364 11.1201 19.3082 11.1468 19.2258L11.8098 17.1855Z" fill="#CDD6F9"/>
<path d="M44.1902 17.1855C44.1303 17.0012 43.8697 17.0012 43.8098 17.1855L43.1468 19.2258C43.1201 19.3082 43.0433 19.364 42.9566 19.364H40.8113C40.6176 19.364 40.537 19.612 40.6938 19.7258L42.4294 20.9868C42.4995 21.0378 42.5288 21.128 42.502 21.2104L41.8391 23.2508C41.7792 23.435 41.9901 23.5882 42.1468 23.4744L43.8824 22.2134C43.9525 22.1624 44.0475 22.1624 44.1176 22.2134L45.8532 23.4744C46.0099 23.5882 46.2208 23.435 46.1609 23.2508L45.498 21.2104C45.4712 21.128 45.5005 21.0378 45.5706 20.9868L47.3062 19.7258C47.463 19.612 47.3824 19.364 47.1887 19.364H45.0434C44.9567 19.364 44.8799 19.3082 44.8532 19.2258L44.1902 17.1855Z" fill="#CDD6F9"/>
<path d="M18.8098 11.1855C18.8697 11.0012 19.1303 11.0012 19.1902 11.1855L19.8532 13.2258C19.8799 13.3082 19.9567 13.364 20.0434 13.364H22.1887C22.3824 13.364 22.463 13.612 22.3062 13.7258L20.5706 14.9868C20.5005 15.0378 20.4712 15.128 20.498 15.2104L21.1609 17.2508C21.2208 17.435 21.0099 17.5882 20.8532 17.4744L19.1176 16.2134C19.0475 16.1624 18.9525 16.1624 18.8824 16.2134L17.1468 17.4744C16.9901 17.5882 16.7792 17.435 16.8391 17.2508L17.502 15.2104C17.5288 15.128 17.4995 15.0378 17.4294 14.9868L15.6938 13.7258C15.537 13.612 15.6176 13.364 15.8113 13.364H17.9566C18.0433 13.364 18.1201 13.3082 18.1468 13.2258L18.8098 11.1855Z" fill="#CDD6F9"/>
<path d="M37.1902 11.1855C37.1303 11.0012 36.8697 11.0012 36.8098 11.1855L36.1468 13.2258C36.1201 13.3082 36.0433 13.364 35.9566 13.364H33.8113C33.6176 13.364 33.537 13.612 33.6938 13.7258L35.4294 14.9868C35.4995 15.0378 35.5288 15.128 35.502 15.2104L34.8391 17.2508C34.7792 17.435 34.9901 17.5882 35.1468 17.4744L36.8824 16.2134C36.9525 16.1624 37.0475 16.1624 37.1176 16.2134L38.8532 17.4744C39.0099 17.5882 39.2208 17.435 39.1609 17.2508L38.498 15.2104C38.4712 15.128 38.5005 15.0378 38.5706 14.9868L40.3062 13.7258C40.463 13.612 40.3824 13.364 40.1887 13.364H38.0434C37.9567 13.364 37.8799 13.3082 37.8532 13.2258L37.1902 11.1855Z" fill="#CDD6F9"/>
<path d="M27.8098 9.18551C27.8697 9.00124 28.1303 9.00125 28.1902 9.18551L28.8532 11.2258C28.8799 11.3082 28.9567 11.364 29.0434 11.364H31.1887C31.3824 11.364 31.463 11.612 31.3062 11.7258L29.5706 12.9868C29.5005 13.0378 29.4712 13.128 29.498 13.2104L30.1609 15.2508C30.2208 15.435 30.0099 15.5882 29.8532 15.4744L28.1176 14.2134C28.0475 14.1624 27.9525 14.1624 27.8824 14.2134L26.1468 15.4744C25.9901 15.5882 25.7792 15.435 25.8391 15.2508L26.502 13.2104C26.5288 13.128 26.4995 13.0378 26.4294 12.9868L24.6938 11.7258C24.537 11.612 24.6176 11.364 24.8113 11.364H26.9566C27.0433 11.364 27.1201 11.3082 27.1468 11.2258L27.8098 9.18551Z" fill="#CDD6F9"/>
</svg>
