<svg width="36" height="37" viewBox="0 0 36 37" fill="none" xmlns="http://www.w3.org/2000/svg">
<rect x="6" y="28.1" width="24" height="2" rx="1" fill="#4C526A"/>
<path fill-rule="evenodd" clip-rule="evenodd" d="M19 8.09998C19 7.54769 18.5523 7.09998 18 7.09998C17.4477 7.09998 17 7.54769 17 8.09998V20.9257L11.6508 16.3407C11.2315 15.9813 10.6002 16.0299 10.2408 16.4492C9.88134 16.8685 9.9299 17.4998 10.3492 17.8592L17.0889 23.6361C17.6132 24.0855 18.3868 24.0855 18.9111 23.6361L25.6508 17.8592C26.0701 17.4998 26.1187 16.8685 25.7593 16.4492C25.3999 16.0299 24.7686 15.9813 24.3492 16.3407L19 20.9258V8.09998Z" fill="#4C526A"/>
</svg>
