<svg width="36" height="37" viewBox="0 0 36 37" fill="none" xmlns="http://www.w3.org/2000/svg">
<g clip-path="url(#clip0_249_1446)">
<rect y="0.0999756" width="36" height="36" rx="4" fill="#F1F1F1"/>
<path fill-rule="evenodd" clip-rule="evenodd" d="M15.8293 12.1H29C29.5523 12.1 30 12.5477 30 13.1C30 13.6523 29.5523 14.1 29 14.1H15.8293C15.4175 15.2652 14.3062 16.1 13 16.1C11.6938 16.1 10.5825 15.2652 10.1707 14.1H7C6.44772 14.1 6 13.6523 6 13.1C6 12.5477 6.44772 12.1 7 12.1H10.1707C10.5825 10.9348 11.6938 10.1 13 10.1C14.3062 10.1 15.4175 10.9348 15.8293 12.1Z" fill="#4C526A"/>
<path fill-rule="evenodd" clip-rule="evenodd" d="M20.1707 22.1H7C6.44772 22.1 6 22.5477 6 23.1C6 23.6523 6.44772 24.1 7 24.1H20.1707C20.5825 25.2652 21.6938 26.1 23 26.1C24.3062 26.1 25.4175 25.2652 25.8293 24.1H29C29.5523 24.1 30 23.6523 30 23.1C30 22.5477 29.5523 22.1 29 22.1H25.8293C25.4175 20.9348 24.3062 20.1 23 20.1C21.6938 20.1 20.5825 20.9348 20.1707 22.1Z" fill="#4C526A"/>
</g>
<defs>
<clipPath id="clip0_249_1446">
<rect y="0.0999756" width="36" height="36" rx="4" fill="white"/>
</clipPath>
</defs>
</svg>
