<svg width="101" height="41" viewBox="0 0 101 41" fill="none" xmlns="http://www.w3.org/2000/svg">
<rect y="0.0999756" width="101" height="40" rx="4" fill="#F1F1F1"/>
<path d="M13.1186 25.6H14.6548V21.1603H18.9801V19.8429H14.6548V16.7406H19.4325V15.4182H13.1186V25.6ZM20.5024 25.6H21.9889V17.9636H20.5024V25.6ZM21.2531 16.7853C21.7652 16.7853 22.1928 16.3876 22.1928 15.9004C22.1928 15.4132 21.7652 15.0105 21.2531 15.0105C20.7361 15.0105 20.3135 15.4132 20.3135 15.9004C20.3135 16.3876 20.7361 16.7853 21.2531 16.7853ZM23.2887 15.4182V23.8201C23.2887 25.0282 23.9102 25.6745 25.1978 25.6547C25.5956 25.6497 25.9137 25.5851 26.1226 25.5204L25.8541 24.3322C25.7497 24.362 25.6453 24.3969 25.3868 24.4018C24.9095 24.4167 24.7752 24.1682 24.7752 23.5119V15.4182H23.2887ZM29.9678 17.9636H28.4018V16.1341H26.9153V17.9636H25.7967V19.1568H26.9153V23.666C26.9103 25.0531 27.9692 25.7243 29.1425 25.6994C29.6148 25.6944 29.933 25.6049 30.107 25.5403L29.8386 24.3123C29.7391 24.3322 29.5552 24.377 29.3165 24.377C28.8343 24.377 28.4018 24.2179 28.4018 23.3578V19.1568H29.9678V17.9636ZM34.1213 25.7541C35.7868 25.7541 36.9651 24.9338 37.3032 23.6909L35.8962 23.4373C35.6277 24.1582 34.9814 24.5261 34.1363 24.5261C32.8635 24.5261 32.0084 23.7008 31.9686 22.2292H37.3976V21.7022C37.3976 18.943 35.7471 17.8642 34.0169 17.8642C31.8891 17.8642 30.4871 19.4849 30.4871 21.8315C30.4871 24.203 31.8692 25.7541 34.1213 25.7541ZM31.9736 21.1156C32.0333 20.0318 32.8188 19.0922 34.0269 19.0922C35.1803 19.0922 35.936 19.9473 35.9409 21.1156H31.9736ZM38.3469 25.6H39.8335V20.9366C39.8335 19.9423 40.604 19.2214 41.6332 19.2214C41.9215 19.2214 42.1452 19.2811 42.3242 19.3706L42.8015 18.1277C42.5479 17.9586 42.2198 17.8493 41.8022 17.8493C40.8974 17.8493 40.1417 18.3564 39.8633 19.1767H39.7837V17.9636H38.3469V25.6Z" fill="#4C526A"/>
<path fill-rule="evenodd" clip-rule="evenodd" d="M74.8293 14.1H88C88.5523 14.1 89 14.5477 89 15.1C89 15.6523 88.5523 16.1 88 16.1H74.8293C74.4175 17.2652 73.3062 18.1 72 18.1C70.6938 18.1 69.5825 17.2652 69.1707 16.1H66C65.4477 16.1 65 15.6523 65 15.1C65 14.5477 65.4477 14.1 66 14.1H69.1707C69.5825 12.9348 70.6938 12.1 72 12.1C73.3062 12.1 74.4175 12.9348 74.8293 14.1Z" fill="#4C526A"/>
<path fill-rule="evenodd" clip-rule="evenodd" d="M79.1707 24.1H66C65.4477 24.1 65 24.5477 65 25.1C65 25.6523 65.4477 26.1 66 26.1H79.1707C79.5825 27.2652 80.6938 28.1 82 28.1C83.3062 28.1 84.4175 27.2652 84.8293 26.1H88C88.5523 26.1 89 25.6523 89 25.1C89 24.5477 88.5523 24.1 88 24.1H84.8293C84.4175 22.9348 83.3062 22.1 82 22.1C80.6938 22.1 79.5825 22.9348 79.1707 24.1Z" fill="#4C526A"/>
</svg>
