<svg width="25" height="23" viewBox="0 0 25 23" fill="none" xmlns="http://www.w3.org/2000/svg">
<path d="M3.51438 12.8892L3.51445 12.8891L3.522 12.8996C4.73031 14.5682 6.18532 16.0209 7.69634 17.3077L7.71329 17.3221L7.72959 17.3373C8.41961 17.9801 9.55028 18.9493 10.6078 19.7628C11.1373 20.1702 11.6325 20.5262 12.0355 20.7801C12.2302 20.9027 12.3888 20.9922 12.5096 21.0508C12.6442 20.9862 12.8258 20.8741 13.0599 20.698C13.2287 20.571 13.3963 20.4336 13.5727 20.2886L13.5855 20.2781C13.7476 20.145 13.9262 19.9982 14.0947 19.8741C17.4223 17.3423 20.8382 14.3792 22.5494 11.2251C23.9556 8.22116 23.8553 4.73719 21.8984 2.66297C19.2489 0.300771 15.2835 0.785329 13.2893 3.24285L12.4924 4.22496L11.7206 3.22301C11.1874 2.53085 10.538 1.98741 9.7644 1.58604C6.51799 0.312136 3.24532 1.62988 1.90039 4.46753C0.95694 7.45566 1.75826 10.5287 3.51438 12.8892Z" stroke="#4C526A" stroke-width="2"/>
</svg>
