<svg width="56" height="57" viewBox="0 0 56 57" fill="none" xmlns="http://www.w3.org/2000/svg">
<path d="M13.8098 11.1855C13.8697 11.0012 14.1303 11.0012 14.1902 11.1855L15.0777 13.9168C15.1044 13.9992 15.1812 14.055 15.2679 14.055H18.1397C18.3335 14.055 18.414 14.3029 18.2573 14.4168L15.9339 16.1049C15.8638 16.1558 15.8345 16.2461 15.8613 16.3285L16.7487 19.0598C16.8086 19.244 16.5977 19.3973 16.4409 19.2834L14.1176 17.5953C14.0475 17.5444 13.9525 17.5444 13.8824 17.5953L11.5591 19.2834C11.4023 19.3973 11.1914 19.244 11.2513 19.0598L12.1387 16.3285C12.1655 16.2461 12.1362 16.1558 12.0661 16.1049L9.7427 14.4168C9.58595 14.3029 9.66651 14.055 9.86025 14.055H12.7321C12.8188 14.055 12.8956 13.9992 12.9223 13.9168L13.8098 11.1855Z" fill="#CDD6F9"/>
<path d="M27.8098 11.1855C27.8697 11.0012 28.1303 11.0012 28.1902 11.1855L29.0777 13.9168C29.1044 13.9992 29.1812 14.055 29.2679 14.055H32.1397C32.3335 14.055 32.414 14.3029 32.2573 14.4168L29.9339 16.1049C29.8638 16.1558 29.8345 16.2461 29.8613 16.3285L30.7487 19.0598C30.8086 19.244 30.5977 19.3973 30.4409 19.2834L28.1176 17.5953C28.0475 17.5444 27.9525 17.5444 27.8824 17.5953L25.5591 19.2834C25.4023 19.3973 25.1914 19.244 25.2513 19.0598L26.1387 16.3285C26.1655 16.2461 26.1362 16.1558 26.0661 16.1049L23.7427 14.4168C23.586 14.3029 23.6665 14.055 23.8603 14.055H26.7321C26.8188 14.055 26.8956 13.9992 26.9223 13.9168L27.8098 11.1855Z" fill="#CDD6F9"/>
<path d="M41.8098 11.1855C41.8697 11.0012 42.1303 11.0012 42.1902 11.1855L43.0777 13.9168C43.1044 13.9992 43.1812 14.055 43.2679 14.055H46.1397C46.3335 14.055 46.414 14.3029 46.2573 14.4168L43.9339 16.1049C43.8638 16.1558 43.8345 16.2461 43.8613 16.3285L44.7487 19.0598C44.8086 19.244 44.5977 19.3973 44.4409 19.2834L42.1176 17.5953C42.0475 17.5444 41.9525 17.5444 41.8824 17.5953L39.5591 19.2834C39.4023 19.3973 39.1914 19.244 39.2513 19.0598L40.1387 16.3285C40.1655 16.2461 40.1362 16.1558 40.0661 16.1049L37.7427 14.4168C37.586 14.3029 37.6665 14.055 37.8603 14.055H40.7321C40.8188 14.055 40.8956 13.9992 40.9223 13.9168L41.8098 11.1855Z" fill="#CDD6F9"/>
<path d="M40.4098 26.4632L34.476 31.6833L29.1893 25.1753C29.0413 24.9934 28.8541 24.8472 28.6417 24.7476C28.4293 24.648 28.1972 24.5976 27.9627 24.6002C27.7281 24.6027 27.4971 24.6582 27.2869 24.7623C27.0768 24.8665 26.8928 25.0167 26.7488 25.2018L21.7038 31.6817L15.5782 26.3868C15.3377 26.1793 15.0395 26.0502 14.7235 26.0168C14.4075 25.9834 14.0889 26.0473 13.8103 26.1999C13.5316 26.3525 13.3062 26.5865 13.1643 26.8707C13.0223 27.1549 12.9706 27.4757 13.016 27.79L15 43.6001H41L42.9829 27.8633C43.0301 27.5472 42.979 27.2242 42.8364 26.9381C42.6939 26.652 42.4668 26.4166 42.186 26.2638C41.9052 26.111 41.5842 26.0482 41.2665 26.0838C40.9488 26.1195 40.6497 26.2519 40.4098 26.4632Z" fill="#0432DF"/>
<path d="M15 45.6001H41V47.6001C41 48.1524 40.5523 48.6001 40 48.6001H16C15.4477 48.6001 15 48.1524 15 47.6001V45.6001Z" fill="#CDD6F9"/>
</svg>
