<svg width="56" height="57" viewBox="0 0 56 57" fill="none" xmlns="http://www.w3.org/2000/svg">
<mask id="path-1-inside-1_248_815" fill="white">
<path d="M43.58 17.9097C43.58 16.6129 43.0648 15.3692 42.1478 14.4523C41.2309 13.5353 39.9872 13.0201 38.6904 13.0201L36.4679 13.0201C35.1768 13.0194 33.9384 12.5081 33.023 11.5977L31.4672 10.0419C31.0128 9.58499 30.4726 9.22237 29.8776 8.97493C29.2825 8.72748 28.6445 8.6001 28 8.6001C27.3556 8.6001 26.7176 8.72748 26.1226 8.97493C25.5275 9.22237 24.9873 9.58499 24.5329 10.0419L22.9771 11.5977C22.0617 12.5081 20.8233 13.0194 19.5322 13.0201H17.3097C16.0129 13.0201 14.7692 13.5353 13.8523 14.4523C12.9353 15.3692 12.4201 16.6129 12.4201 17.9097V20.1322C12.4194 21.4233 11.9081 22.6617 10.9977 23.5771L9.44195 25.1329C8.985 25.5873 8.62238 26.1275 8.37494 26.7225C8.12749 27.3176 8.0001 27.9556 8.0001 28.6C8.0001 29.2445 8.12749 29.8825 8.37494 30.4775C8.62238 31.0726 8.985 31.6128 9.44195 32.0672L10.9977 33.623C11.9081 34.5384 12.4194 35.7768 12.4201 37.0679L12.4201 39.2904C12.4201 40.5872 12.9353 41.8309 13.8523 42.7478C14.7692 43.6648 16.0129 44.18 17.3097 44.18L19.5322 44.18C20.8233 44.1807 22.0617 44.692 22.9771 45.6024L24.5329 47.1581C24.9873 47.6151 25.5275 47.9777 26.1226 48.2252C26.7176 48.4726 27.3556 48.6 28 48.6C28.6445 48.6 29.2825 48.4726 29.8776 48.2252C30.4726 47.9777 31.0128 47.6151 31.4672 47.1581L33.023 45.6024C33.9384 44.692 35.1768 44.1807 36.4679 44.18H38.6904C39.9872 44.18 41.2309 43.6648 42.1478 42.7478C43.0648 41.8309 43.58 40.5872 43.58 39.2904V37.0679C43.5807 35.7768 44.092 34.5384 45.0024 33.623L46.5582 32.0672C47.0151 31.6128 47.3777 31.0726 47.6252 30.4775C47.8726 29.8825 48 29.2445 48 28.6C48 27.9556 47.8726 27.3176 47.6252 26.7225C47.3777 26.1275 47.0151 25.5873 46.5582 25.1329L45.0024 23.5771C44.092 22.6617 43.5807 21.4233 43.58 20.1322V17.9097Z"/>
</mask>
<path d="M43.58 17.9097C43.58 16.6129 43.0648 15.3692 42.1478 14.4523C41.2309 13.5353 39.9872 13.0201 38.6904 13.0201L36.4679 13.0201C35.1768 13.0194 33.9384 12.5081 33.023 11.5977L31.4672 10.0419C31.0128 9.58499 30.4726 9.22237 29.8776 8.97493C29.2825 8.72748 28.6445 8.6001 28 8.6001C27.3556 8.6001 26.7176 8.72748 26.1226 8.97493C25.5275 9.22237 24.9873 9.58499 24.5329 10.0419L22.9771 11.5977C22.0617 12.5081 20.8233 13.0194 19.5322 13.0201H17.3097C16.0129 13.0201 14.7692 13.5353 13.8523 14.4523C12.9353 15.3692 12.4201 16.6129 12.4201 17.9097V20.1322C12.4194 21.4233 11.9081 22.6617 10.9977 23.5771L9.44195 25.1329C8.985 25.5873 8.62238 26.1275 8.37494 26.7225C8.12749 27.3176 8.0001 27.9556 8.0001 28.6C8.0001 29.2445 8.12749 29.8825 8.37494 30.4775C8.62238 31.0726 8.985 31.6128 9.44195 32.0672L10.9977 33.623C11.9081 34.5384 12.4194 35.7768 12.4201 37.0679L12.4201 39.2904C12.4201 40.5872 12.9353 41.8309 13.8523 42.7478C14.7692 43.6648 16.0129 44.18 17.3097 44.18L19.5322 44.18C20.8233 44.1807 22.0617 44.692 22.9771 45.6024L24.5329 47.1581C24.9873 47.6151 25.5275 47.9777 26.1226 48.2252C26.7176 48.4726 27.3556 48.6 28 48.6C28.6445 48.6 29.2825 48.4726 29.8776 48.2252C30.4726 47.9777 31.0128 47.6151 31.4672 47.1581L33.023 45.6024C33.9384 44.692 35.1768 44.1807 36.4679 44.18H38.6904C39.9872 44.18 41.2309 43.6648 42.1478 42.7478C43.0648 41.8309 43.58 40.5872 43.58 39.2904V37.0679C43.5807 35.7768 44.092 34.5384 45.0024 33.623L46.5582 32.0672C47.0151 31.6128 47.3777 31.0726 47.6252 30.4775C47.8726 29.8825 48 29.2445 48 28.6C48 27.9556 47.8726 27.3176 47.6252 26.7225C47.3777 26.1275 47.0151 25.5873 46.5582 25.1329L45.0024 23.5771C44.092 22.6617 43.5807 21.4233 43.58 20.1322V17.9097Z" fill="#CDD6F9"/>
<path d="M46.58 17.9097C46.58 19.5665 45.2368 20.9097 43.58 20.9097C41.9231 20.9097 40.58 19.5665 40.58 17.9097H46.58ZM38.6904 13.0201V10.0201V13.0201ZM36.4679 13.0201V16.0201L36.4662 16.0201L36.4679 13.0201ZM33.023 11.5977L30.9076 13.725L30.9016 13.719L33.023 11.5977ZM31.4672 10.0419L29.3459 12.1633L29.3399 12.1573L31.4672 10.0419ZM28 8.6001V5.6001V8.6001ZM24.5329 10.0419L26.6602 12.1573L26.6542 12.1633L24.5329 10.0419ZM22.9771 11.5977L25.0985 13.719L25.0925 13.725L22.9771 11.5977ZM19.5322 13.0201L19.5339 16.0201H19.5322V13.0201ZM17.3097 13.0201V10.0201V13.0201ZM12.4201 20.1322H15.4201V20.1339L12.4201 20.1322ZM10.9977 23.5771L13.125 25.6925L13.119 25.6985L10.9977 23.5771ZM9.44195 25.1329L11.5633 27.2542L11.5573 27.2602L9.44195 25.1329ZM9.44195 32.0672L11.5573 29.9399L11.5633 29.9459L9.44195 32.0672ZM10.9977 33.623L13.119 31.5016L13.125 31.5076L10.9977 33.623ZM12.4201 37.0679L15.4201 37.0662V37.0679H12.4201ZM19.5322 44.18V41.18H19.5339L19.5322 44.18ZM22.9771 45.6024L25.0925 43.4751L25.0985 43.4811L22.9771 45.6024ZM24.5329 47.1581L26.6542 45.0368L26.6602 45.0428L24.5329 47.1581ZM31.4672 47.1581L29.3399 45.0428L29.3459 45.0368L31.4672 47.1581ZM33.023 45.6024L30.9016 43.4811L30.9076 43.4751L33.023 45.6024ZM36.4679 44.18L36.4662 41.18H36.4679V44.18ZM43.58 39.2904H46.58H43.58ZM43.58 37.0679H40.58L40.58 37.0662L43.58 37.0679ZM45.0024 33.623L42.8751 31.5076L42.8811 31.5016L45.0024 33.623ZM46.5582 32.0672L44.4368 29.9459L44.4428 29.9399L46.5582 32.0672ZM48 28.6H51H48ZM46.5582 25.1329L44.4428 27.2602L44.4368 27.2542L46.5582 25.1329ZM45.0024 23.5771L42.8811 25.6985L42.8751 25.6925L45.0024 23.5771ZM43.58 20.1322L40.58 20.1339V20.1322H43.58ZM40.58 17.9097C40.58 16.2528 41.9231 14.9097 43.58 14.9097C45.2368 14.9097 46.58 16.2528 46.58 17.9097H40.58ZM40.58 17.9097C40.58 17.4085 40.3809 16.9279 40.0265 16.5736L44.2692 12.3309C45.7487 13.8105 46.58 15.8172 46.58 17.9097H40.58ZM40.0265 16.5736C39.6722 16.2192 39.1915 16.0201 38.6904 16.0201V10.0201C40.7829 10.0201 42.7896 10.8514 44.2692 12.3309L40.0265 16.5736ZM38.6904 16.0201H36.4679V10.0201H38.6904V16.0201ZM36.4662 16.0201C34.383 16.0189 32.3848 15.1939 30.9076 13.725L35.1383 9.47044C35.4921 9.82224 35.9707 10.0198 36.4696 10.0201L36.4662 16.0201ZM30.9016 13.719L29.3459 12.1633L33.5885 7.92063L35.1443 9.47639L30.9016 13.719ZM29.3399 12.1573C29.1643 11.9807 28.9555 11.8406 28.7256 11.7449L31.0295 6.2049C31.9896 6.60417 32.8613 7.18928 33.5945 7.92659L29.3399 12.1573ZM28.7256 11.7449C28.4957 11.6493 28.2491 11.6001 28 11.6001V5.6001C29.0399 5.6001 30.0694 5.80564 31.0295 6.2049L28.7256 11.7449ZM28 11.6001C27.751 11.6001 27.5044 11.6493 27.2745 11.7449L24.9706 6.2049C25.9307 5.80564 26.9602 5.6001 28 5.6001V11.6001ZM27.2745 11.7449C27.0446 11.8406 26.8358 11.9807 26.6602 12.1573L22.4056 7.92659C23.1388 7.18928 24.0105 6.60417 24.9706 6.2049L27.2745 11.7449ZM26.6542 12.1633L25.0985 13.719L20.8558 9.47639L22.4116 7.92062L26.6542 12.1633ZM25.0925 13.725C23.6153 15.1939 21.6171 16.0189 19.5339 16.0201L19.5305 10.0201C20.0294 10.0198 20.508 9.82225 20.8618 9.47044L25.0925 13.725ZM19.5322 16.0201H17.3097V10.0201H19.5322V16.0201ZM17.3097 16.0201C16.8086 16.0201 16.3279 16.2192 15.9736 16.5736L11.7309 12.3309C13.2105 10.8514 15.2173 10.0201 17.3097 10.0201V16.0201ZM15.9736 16.5736C15.6192 16.9279 15.4201 17.4085 15.4201 17.9097L9.42014 17.9097C9.42014 15.8172 10.2514 13.8105 11.7309 12.3309L15.9736 16.5736ZM15.4201 17.9097V20.1322L9.42014 20.1322V17.9097L15.4201 17.9097ZM15.4201 20.1339C15.4189 22.2171 14.5939 24.2153 13.125 25.6925L8.87045 21.4618C9.22225 21.108 9.41985 20.6294 9.42014 20.1305L15.4201 20.1339ZM13.119 25.6985L11.5633 27.2542L7.32063 23.0116L8.8764 21.4558L13.119 25.6985ZM11.5573 27.2602C11.3807 27.4358 11.2406 27.6445 11.145 27.8745L5.60491 25.5706C6.00417 24.6105 6.58928 23.7388 7.3266 23.0056L11.5573 27.2602ZM11.145 27.8745C11.0493 28.1044 11.0001 28.351 11.0001 28.6H5.0001C5.0001 27.5602 5.20565 26.5307 5.60491 25.5706L11.145 27.8745ZM11.0001 28.6C11.0001 28.8491 11.0493 29.0956 11.145 29.3256L5.60491 31.6295C5.20565 30.6694 5.0001 29.6399 5.0001 28.6H11.0001ZM11.145 29.3256C11.2406 29.5556 11.3807 29.7643 11.5573 29.9399L7.3266 34.1945C6.58928 33.4613 6.00417 32.5896 5.60491 31.6295L11.145 29.3256ZM11.5633 29.9459L13.119 31.5016L8.8764 35.7443L7.32063 34.1885L11.5633 29.9459ZM13.125 31.5076C14.5939 32.9848 15.4189 34.983 15.4201 37.0662L9.42014 37.0696C9.41985 36.5707 9.22225 36.0921 8.87045 35.7383L13.125 31.5076ZM15.4201 37.0679L15.4201 39.2904H9.42014L9.42014 37.0679H15.4201ZM15.4201 39.2904C15.4201 39.7915 15.6192 40.2722 15.9736 40.6265L11.7309 44.8692C10.2514 43.3896 9.42014 41.3828 9.42014 39.2904H15.4201ZM15.9736 40.6265C16.3279 40.9809 16.8086 41.18 17.3097 41.18V47.18C15.2173 47.18 13.2105 46.3487 11.7309 44.8692L15.9736 40.6265ZM17.3097 41.18L19.5322 41.18V47.18L17.3097 47.18V41.18ZM19.5339 41.18C21.6171 41.1812 23.6153 42.0062 25.0925 43.4751L20.8618 47.7296C20.508 47.3778 20.0294 47.1802 19.5305 47.18L19.5339 41.18ZM25.0985 43.4811L26.6542 45.0368L22.4116 49.2795L20.8558 47.7237L25.0985 43.4811ZM26.6602 45.0428C26.8358 45.2194 27.0445 45.3595 27.2745 45.4551L24.9706 50.9952C24.0105 50.5959 23.1388 50.0108 22.4056 49.2735L26.6602 45.0428ZM27.2745 45.4551C27.5045 45.5508 27.751 45.6 28 45.6V51.6C26.9602 51.6 25.9307 51.3944 24.9706 50.9952L27.2745 45.4551ZM28 45.6C28.2491 45.6 28.4957 45.5508 28.7256 45.4551L31.0295 50.9952C30.0694 51.3944 29.0399 51.6 28 51.6V45.6ZM28.7256 45.4551C28.9556 45.3595 29.1643 45.2194 29.3399 45.0428L33.5945 49.2735C32.8613 50.0108 31.9896 50.5959 31.0295 50.9952L28.7256 45.4551ZM29.3459 45.0368L30.9016 43.4811L35.1443 47.7237L33.5885 49.2795L29.3459 45.0368ZM30.9076 43.4751C32.3848 42.0062 34.383 41.1812 36.4662 41.18L36.4696 47.18C35.9707 47.1802 35.4921 47.3778 35.1383 47.7296L30.9076 43.4751ZM36.4679 41.18H38.6904L38.6904 47.18H36.4679L36.4679 41.18ZM38.6904 41.18C39.1915 41.18 39.6722 40.9809 40.0265 40.6265L44.2692 44.8692C42.7896 46.3487 40.7829 47.18 38.6904 47.18L38.6904 41.18ZM40.0265 40.6265C40.3809 40.2722 40.58 39.7915 40.58 39.2904H46.58C46.58 41.3828 45.7487 43.3896 44.2692 44.8692L40.0265 40.6265ZM40.58 39.2904V37.0679H46.58L46.58 39.2904H40.58ZM40.58 37.0662C40.5812 34.983 41.4062 32.9848 42.8751 31.5076L47.1297 35.7383C46.7779 36.0921 46.5803 36.5707 46.58 37.0696L40.58 37.0662ZM42.8811 31.5016L44.4368 29.9459L48.6795 34.1885L47.1237 35.7443L42.8811 31.5016ZM44.4428 29.9399C44.6194 29.7643 44.7595 29.5555 44.8551 29.3256L50.3952 31.6295C49.9959 32.5896 49.4108 33.4613 48.6735 34.1945L44.4428 29.9399ZM44.8551 29.3256C44.9508 29.0957 45 28.8491 45 28.6H51C51 29.6399 50.7945 30.6694 50.3952 31.6295L44.8551 29.3256ZM45 28.6C45 28.351 44.9508 28.1044 44.8551 27.8745L50.3952 25.5706C50.7945 26.5307 51 27.5602 51 28.6H45ZM44.8551 27.8745C44.7595 27.6445 44.6194 27.4358 44.4428 27.2602L48.6735 23.0056C49.4108 23.7388 49.9959 24.6105 50.3952 25.5706L44.8551 27.8745ZM44.4368 27.2542L42.8811 25.6985L47.1237 21.4558L48.6795 23.0116L44.4368 27.2542ZM42.8751 25.6925C41.4062 24.2153 40.5812 22.2171 40.58 20.1339L46.58 20.1305C46.5803 20.6294 46.7779 21.108 47.1297 21.4618L42.8751 25.6925ZM40.58 20.1322V17.9097H46.58V20.1322H40.58Z" fill="#0432DF" mask="url(#path-1-inside-1_248_815)"/>
<path d="M18.5739 31.6001V25.7819H22.3011V26.6654H19.6278V28.245H22.0455V29.1285H19.6278V31.6001H18.5739ZM23.2614 31.6001V25.7819H25.4432C25.8902 25.7819 26.2652 25.8596 26.5682 26.0149C26.8731 26.1702 27.1032 26.388 27.2585 26.6683C27.4157 26.9467 27.4943 27.2715 27.4943 27.6427C27.4943 28.0158 27.4148 28.3397 27.2557 28.6143C27.0985 28.887 26.8665 29.0982 26.5597 29.2478C26.2528 29.3956 25.8759 29.4694 25.429 29.4694H23.875V28.5944H25.2869C25.5483 28.5944 25.7623 28.5584 25.929 28.4865C26.0956 28.4126 26.2188 28.3056 26.2983 28.1654C26.3797 28.0234 26.4205 27.8492 26.4205 27.6427C26.4205 27.4363 26.3797 27.2601 26.2983 27.1143C26.2169 26.9666 26.0928 26.8548 25.9261 26.7791C25.7595 26.7014 25.5445 26.6626 25.2812 26.6626H24.3153V31.6001H23.2614ZM26.267 28.9637L27.7074 31.6001H26.5312L25.1165 28.9637H26.267ZM28.4645 31.6001V25.7819H32.2486V26.6654H29.5185V28.245H32.0526V29.1285H29.5185V30.7166H32.2713V31.6001H28.4645ZM33.3239 31.6001V25.7819H37.108V26.6654H34.3778V28.245H36.9119V29.1285H34.3778V30.7166H37.1307V31.6001H33.3239Z" fill="#0432DF"/>
</svg>
