<svg width="17" height="17" viewBox="0 0 17 17" fill="none" xmlns="http://www.w3.org/2000/svg">
<path fill-rule="evenodd" clip-rule="evenodd" d="M10.935 3.84316C12.8877 5.79578 12.8877 8.9616 10.935 10.9142C8.98241 12.8668 5.81658 12.8668 3.86396 10.9142C1.91134 8.96161 1.91134 5.79578 3.86396 3.84316C5.81658 1.89054 8.98241 1.89054 10.935 3.84316ZM13.0062 11.5712C15.0618 8.82938 14.8428 4.92254 12.3492 2.42895C9.61557 -0.304725 5.18342 -0.304725 2.44975 2.42895C-0.283923 5.16262 -0.283923 9.59477 2.44975 12.3284C4.94334 14.822 8.85019 15.041 11.592 12.9854L15.1777 16.5711C15.5682 16.9616 16.2014 16.9616 16.5919 16.5711C16.9824 16.1806 16.9824 15.5474 16.5919 15.1569L13.0062 11.5712Z" fill="#4F5261"/>
</svg>
