<svg width="56" height="57" viewBox="0 0 56 57" fill="none" xmlns="http://www.w3.org/2000/svg">
<circle cx="28" cy="28.6001" r="18.5" fill="#CDD6F9" stroke="#0432DF" stroke-width="3"/>
<path fill-rule="evenodd" clip-rule="evenodd" d="M24 21.6001C23.4477 21.6001 23 22.0478 23 22.6001V31.6001C23 32.1524 23.4477 32.6001 24 32.6001C24.5523 32.6001 25 32.1524 25 31.6001V22.6001C25 22.0478 24.5523 21.6001 24 21.6001ZM27 22.6001C27 22.0478 27.4477 21.6001 28 21.6001H30.5C32.9853 21.6001 35 23.6148 35 26.1001V25.6001C37.7614 25.6001 40 27.8387 40 30.6001V31.7766C40 32.2314 39.6313 32.6001 39.1765 32.6001H35H28C27.4477 32.6001 27 32.1524 27 31.6001V22.6001ZM19 25.6001C19 25.0478 19.4477 24.6001 20 24.6001C20.5523 24.6001 21 25.0478 21 25.6001V31.6001C21 32.1524 20.5523 32.6001 20 32.6001C19.4477 32.6001 19 32.1524 19 31.6001V25.6001ZM16 27.6001C15.4477 27.6001 15 28.0478 15 28.6001V31.6001C15 32.1524 15.4477 32.6001 16 32.6001C16.5523 32.6001 17 32.1524 17 31.6001V28.6001C17 28.0478 16.5523 27.6001 16 27.6001Z" fill="#0432DF"/>
</svg>
