<svg width="113" height="18" viewBox="0 0 113 18" fill="none" xmlns="http://www.w3.org/2000/svg">
<path d="M23.7104 0.650698L19.0304 17.4027H15.0704L11.9264 5.4747L8.63843 17.4027L4.70243 17.4267L0.19043 0.650698C0.19043 0.650698 2.42599 0.311822 3.79043 0.650698C8.84595 1.9063 1.53617 13.4864 6.74243 13.6587C11.9909 13.8324 5.05773 1.93193 10.1504 0.650698C11.5684 0.293968 12.4777 0.289046 13.8944 0.650698C18.9383 1.93829 11.9056 13.678 17.1104 13.5867C22.2934 13.4957 15.0583 1.91136 20.0864 0.650698C21.4592 0.306516 23.7104 0.650698 23.7104 0.650698Z" fill="white"/>
<path d="M24.5604 10.7067C24.5604 9.3627 24.8244 8.1707 25.3524 7.1307C25.8964 6.0907 26.6244 5.2907 27.5364 4.7307C28.4644 4.1707 29.4964 3.8907 30.6324 3.8907C31.6244 3.8907 32.4884 4.0907 33.2244 4.4907C33.9764 4.8907 34.5764 5.3947 35.0244 6.0027C35.0244 6.0027 34.6624 4.75265 35.0244 4.1067C35.6703 2.95379 38.4084 4.1067 38.4084 4.1067V17.4027H35.0244V15.4587C34.5924 16.0827 33.9924 16.6027 33.2244 17.0187C32.4724 17.4187 31.6004 17.6187 30.6084 17.6187C29.4884 17.6187 28.4644 17.3307 27.5364 16.7547C26.6244 16.1787 25.8964 15.3707 25.3524 14.3307C24.8244 13.2747 24.5604 12.0667 24.5604 10.7067ZM35.0244 10.7547C35.0244 10.7547 34.8644 9.2427 34.5444 8.6667C34.2244 8.0747 33.7924 7.6267 33.2484 7.3227C32.7044 7.0027 32.1204 6.8427 31.4964 6.8427C30.8724 6.8427 30.2964 6.9947 29.7684 7.2987C29.2404 7.6027 28.8084 8.0507 28.4724 8.6427C28.1524 9.2187 27.9924 10.7067 27.9924 10.7067C27.9924 10.7067 28.1524 12.2107 28.4724 12.8187C28.8084 13.4107 29.2404 13.8667 29.7684 14.1867C30.3124 14.5067 30.8884 14.6667 31.4964 14.6667C32.1204 14.6667 32.7044 14.5147 33.2484 14.2107C33.7924 13.8907 34.2244 13.4427 34.5444 12.8667C34.8644 12.2747 35.0244 10.7547 35.0244 10.7547Z" fill="white"/>
<path d="M46.754 14.3067C50.9479 14.3067 46.0822 5.26151 50.114 4.1067C51.4565 3.72216 53.69 4.1067 53.69 4.1067L48.77 17.4027H44.69L39.794 4.1067C39.794 4.1067 42.0431 3.71741 43.394 4.1067C47.4239 5.26799 42.5601 14.3067 46.754 14.3067Z" fill="white"/>
<path d="M67.4572 10.4667C67.4572 10.9467 67.4252 11.3787 67.3612 11.7627C67.2972 12.1467 57.5612 10.8027 57.6412 11.7627C57.7212 12.7227 58.0572 13.4747 58.6492 14.0187C59.2412 14.5627 59.9692 14.8347 60.8332 14.8347C62.0812 14.8347 62.9692 14.2987 63.4972 13.2267C64.0252 12.1547 67.1212 13.2267 67.1212 13.2267C66.7372 14.5067 66.0012 15.5627 64.9132 16.3947C63.8252 17.2107 62.4892 17.6187 60.9052 17.6187C59.6252 17.6187 58.4732 17.3387 57.4492 16.7787C56.4412 16.2027 55.6492 15.3947 55.0732 14.3547C54.5132 13.3147 54.2332 12.1147 54.2332 10.7547C54.2332 9.3787 54.5132 8.1707 55.0732 7.1307C55.6332 6.0907 56.4172 5.2907 57.4252 4.7307C58.4332 4.1707 59.5932 3.8907 60.9052 3.8907C62.1692 3.8907 63.2972 4.1627 64.2892 4.7067C65.2972 5.2507 66.0732 6.0267 66.6172 7.0347C67.1772 8.0267 67.4572 9.1707 67.4572 10.4667ZM63.9772 9.5067C63.9612 8.6427 63.6492 7.9547 63.0412 7.4427C62.4332 6.9147 61.6892 6.6507 60.8092 6.6507C59.9772 6.6507 59.2732 6.9067 58.6972 7.4187C58.1372 7.9147 57.7932 8.6107 57.6652 9.5067C57.6652 9.5067 63.9932 10.3707 63.9772 9.5067Z" fill="white"/>
<path d="M74.5177 17.6187C73.4297 17.6187 72.4537 17.4267 71.5897 17.0427C70.7257 16.6427 70.0377 16.1067 69.5257 15.4347C69.0297 14.7627 68.7577 14.0187 68.7097 13.2027C68.6617 12.3867 72.0297 12.6907 72.0937 13.2027C72.1577 13.7147 72.4057 14.1387 72.8377 14.4747C73.2857 14.8107 74.4937 14.9787 74.4937 14.9787C74.4937 14.9787 75.6297 14.8507 75.9817 14.5947C76.3497 14.3387 76.5337 14.0107 76.5337 13.6107C76.5337 13.1787 75.8617 12.6507 75.8617 12.6507L73.7737 11.9307C73.7737 11.9307 71.9657 11.4427 71.3257 11.1867C70.7017 10.9307 70.1577 10.5387 69.6937 10.0107C69.2457 9.4827 69.0217 8.7707 69.0217 7.8747C69.0217 7.1387 69.2297 6.4667 69.6457 5.8587C70.0777 5.2507 70.6857 4.7707 71.4697 4.4187C72.2697 4.0667 73.2057 3.8907 74.2777 3.8907C75.8617 3.8907 77.1257 4.2907 78.0697 5.0907C79.0137 5.8747 79.5337 6.9387 79.6297 8.2827C79.7257 9.6267 76.4617 8.8107 76.4137 8.2827C76.3657 7.7547 76.1417 7.3387 75.7417 7.0347C75.3577 6.7147 74.1817 6.5547 74.1817 6.5547C74.1817 6.5547 73.1017 6.6667 72.7657 6.8907C72.4457 7.1147 72.2857 7.4267 72.2857 7.8267C72.2857 8.2747 72.5097 8.6187 72.9577 8.8587C73.4057 9.0827 75.0457 9.5547 75.0457 9.5547C75.0457 9.5547 76.7977 10.0427 77.4217 10.2987C78.0457 10.5547 78.5817 10.9547 79.0297 11.4987C79.4937 12.0267 79.7337 12.7307 79.7497 13.6107C79.7497 14.3787 79.5337 15.0667 79.1017 15.6747C78.6857 16.2827 78.0777 16.7627 77.2777 17.1147C76.4937 17.4507 75.5737 17.6187 74.5177 17.6187Z" fill="white"/>
<path d="M81.2118 9.0027C81.2118 7.22507 81.5798 5.8827 82.3158 4.5867C83.0678 3.2747 84.0838 2.2587 85.3638 1.5387C86.6598 0.802698 88.1078 0.434698 89.7078 0.434698C91.5798 0.434698 93.2198 0.914698 94.6278 1.8747C96.0358 2.8347 97.0198 4.1627 97.5798 5.8587C98.1398 7.5547 94.0998 6.6587 93.7158 5.8587C93.3318 5.0587 92.7878 4.4587 92.0838 4.0587C91.3958 3.6587 90.5958 3.4587 89.6838 3.4587C88.7078 3.4587 87.8358 3.6907 87.0678 4.1547C86.3158 4.6027 85.7238 5.2427 85.2918 6.0747C84.8758 6.9067 84.6678 9.0027 84.6678 9.0027C84.6678 9.0027 84.8758 11.0827 85.2918 11.9307C85.7238 12.7627 86.3158 13.4107 87.0678 13.8747C87.8358 14.3227 88.7078 14.5467 89.6838 14.5467C90.5958 14.5467 91.3958 14.3467 92.0838 13.9467C92.7878 13.5307 93.3318 12.9227 93.7158 12.1227C94.0998 11.3227 98.1398 10.4107 97.5798 12.1227C97.0198 13.8347 96.0358 15.1707 94.6278 16.1307C93.2358 17.0747 91.5958 17.5467 89.7078 17.5467C88.1078 17.5467 86.6598 17.1867 85.3638 16.4667C84.0838 15.7307 83.0678 14.7147 82.3158 13.4187C81.5798 12.1227 81.2118 10.7803 81.2118 9.0027Z" fill="white"/>
<path d="M105.874 17.6187C104.594 17.6187 103.442 17.3387 102.418 16.7787C101.394 16.2027 100.586 15.3947 99.9937 14.3547C99.4177 13.3147 99.1297 12.1147 99.1297 10.7547C99.1297 9.3947 99.4257 8.1947 100.018 7.1547C100.626 6.1147 101.45 5.3147 102.49 4.7547C103.53 4.1787 104.69 3.8907 105.97 3.8907C107.25 3.8907 108.41 4.1787 109.45 4.7547C110.49 5.3147 111.306 6.1147 111.898 7.1547C112.506 8.1947 112.81 9.3947 112.81 10.7547C112.81 12.1147 112.498 13.3147 111.874 14.3547C111.266 15.3947 110.434 16.2027 109.378 16.7787C108.338 17.3387 107.17 17.6187 105.874 17.6187ZM105.874 14.6907C105.874 14.6907 107.05 14.5467 107.578 14.2587C108.122 13.9547 108.554 13.5067 108.874 12.9147C109.194 12.3227 109.354 10.7547 109.354 10.7547C109.354 10.7547 109.018 8.5227 108.346 7.8507C107.69 7.1627 105.922 6.8187 105.922 6.8187C105.922 6.8187 104.154 7.1627 103.498 7.8507C102.858 8.5227 102.538 10.7547 102.538 10.7547C102.538 10.7547 102.85 12.9947 103.474 13.6827C104.114 14.3547 105.874 14.6907 105.874 14.6907Z" fill="white"/>
</svg>
